#Comment line ignore any data following # character 
#Hierarchical Translation and Rotation (.htr) file 
[Header]	
#Header keywords are followed by a single value 
FileType HTR		#Single word string
DataType HTRS		#Translation followed by rotation and scale data
FileVersion 1		#integer
NumSegments 64		#integer
NumFrames 3		#integer
DataFrameRate 30		#integer, data frame rate in this file
EulerRotationOrder ZYX
CalibrationUnits mm
RotationUnits Degrees
GlobalAxisofGravity Y
BoneLengthAxis Y
ScaleFactor 1.00
[SegmentNames&Hierarchy]
#CHILD	PARENT
Pinger_Root GLOBAL
Pelvis Pinger_Root
L_Hip Pelvis
R_Hip Pelvis
Rear_Leg01 Pelvis
Spine1 Pelvis
L_Leg01 L_Hip
L_Leg02 L_Leg01
L_Leg03 L_Leg02
L_Foot L_Leg03
L_Toe1_01 L_Foot
L_Toe2_01 L_Foot
L_Toe3_01 L_Foot
planeAlignerLeft L_Foot
L_Toe1_02 L_Toe1_01
L_Toe1_03 L_Toe1_02
L_Toe2_02 L_Toe2_01
L_Toe2_03 L_Toe2_02
L_Toe3_02 L_Toe3_01
L_Toe3_03 L_Toe3_02
planeLockWeightLeft planeAlignerLeft
R_Leg01 R_Hip
R_Leg02 R_Leg01
R_Leg03 R_Leg02
R_Foot R_Leg03
planeAlignerRight R_Foot
R_Toe1_01 R_Foot
R_Toe2_01 R_Foot
R_Toe3_01 R_Foot
planeLockWeightRight planeAlignerRight
R_Toe1_02 R_Toe1_01
R_Toe1_03 R_Toe1_02
R_Toe2_02 R_Toe2_01
R_Toe2_03 R_Toe2_02
R_Toe3_02 R_Toe3_01
R_Toe3_03 R_Toe3_02
Rear_Leg02 Rear_Leg01
Rear_Leg03 Rear_Leg02
Rear_Leg04 Rear_Leg03
Rear_Foot Rear_Leg04
planeAlignerCenter Rear_Foot
Rear_Toe1_01 Rear_Foot
Rear_Toe2_01 Rear_Foot
Rear_Toe3_01 Rear_Foot
planeLockWeightCenter planeAlignerCenter
Rear_Toe1_02 Rear_Toe1_01
Rear_Toe1_03 Rear_Toe1_02
Rear_Toe2_02 Rear_Toe2_01
Rear_Toe2_03 Rear_Toe2_02
Rear_Toe3_02 Rear_Toe3_01
Rear_Toe3_03 Rear_Toe3_02
Back_Bone Spine1
Head Spine1
Motor_Bone Back_Bone
Ping_Mechanism Back_Bone
BN_LookIK Head
bottomMouth Head
L_Mouth01 Head
L_mouthFront Head
mouthGun Head
R_Mouth01 Head
R_mouthFront Head
TopMouth Head
weapon_bone Head
[BasePosition]
#SegmentName Tx, Ty, Tz, Rx, Ry, Rz, BoneLength
Pinger_Root 0.000000 0.000000 0.000000 -90.000000 0.000000 0.000000 10.000000 
Pelvis 0.000000 0.000000 0.000000 0.000000 0.000000 0.000000 10.000000 
L_Hip 0.000000 0.000000 0.000000 0.000000 0.000000 0.000000 10.000000 
R_Hip 0.000000 0.000000 0.000000 0.000000 0.000000 0.000000 10.000000 
Rear_Leg01 0.000000 0.000000 0.000000 0.000000 0.000000 0.000000 10.000000 
Spine1 0.000000 0.000000 0.000000 0.000000 0.000000 0.000000 10.000000 
L_Leg01 0.000000 0.000000 0.000000 0.000000 0.000000 0.000000 10.000000 
L_Leg02 0.000000 0.000000 0.000000 0.000000 0.000000 0.000000 10.000000 
L_Leg03 0.000000 0.000000 0.000000 0.000000 0.000000 0.000000 10.000000 
L_Foot 0.000000 0.000000 0.000000 0.000000 0.000000 0.000000 10.000000 
L_Toe1_01 0.000000 0.000000 0.000000 0.000000 0.000000 0.000000 10.000000 
L_Toe2_01 0.000000 0.000000 0.000000 0.000000 0.000000 0.000000 10.000000 
L_Toe3_01 0.000000 0.000000 0.000000 0.000000 0.000000 0.000000 10.000000 
planeAlignerLeft 0.000000 0.000000 0.000000 0.000000 0.000000 0.000000 10.000000 
L_Toe1_02 0.000000 0.000000 0.000000 0.000000 0.000000 0.000000 10.000000 
L_Toe1_03 0.000000 0.000000 0.000000 0.000000 0.000000 0.000000 10.000000 
L_Toe2_02 0.000000 0.000000 0.000000 0.000000 0.000000 0.000000 10.000000 
L_Toe2_03 0.000000 0.000000 0.000000 0.000000 0.000000 0.000000 10.000000 
L_Toe3_02 0.000000 0.000000 0.000000 0.000000 0.000000 0.000000 10.000000 
L_Toe3_03 0.000000 0.000000 0.000000 0.000000 0.000000 0.000000 10.000000 
planeLockWeightLeft 0.000000 0.000000 0.000000 0.000000 0.000000 0.000000 10.000000 
R_Leg01 0.000000 0.000000 0.000000 0.000000 0.000000 0.000000 10.000000 
R_Leg02 0.000000 0.000000 0.000000 0.000000 0.000000 0.000000 10.000000 
R_Leg03 0.000000 0.000000 0.000000 0.000000 0.000000 0.000000 10.000000 
R_Foot 0.000000 0.000000 0.000000 0.000000 0.000000 0.000000 10.000000 
planeAlignerRight 0.000000 0.000000 0.000000 0.000000 0.000000 0.000000 10.000000 
R_Toe1_01 0.000000 0.000000 0.000000 0.000000 0.000000 0.000000 10.000000 
R_Toe2_01 0.000000 0.000000 0.000000 0.000000 0.000000 0.000000 10.000000 
R_Toe3_01 0.000000 0.000000 0.000000 0.000000 0.000000 0.000000 10.000000 
planeLockWeightRight 0.000000 0.000000 0.000000 0.000000 0.000000 0.000000 10.000000 
R_Toe1_02 0.000000 0.000000 0.000000 0.000000 0.000000 0.000000 10.000000 
R_Toe1_03 0.000000 0.000000 0.000000 0.000000 0.000000 0.000000 10.000000 
R_Toe2_02 0.000000 0.000000 0.000000 0.000000 0.000000 0.000000 10.000000 
R_Toe2_03 0.000000 0.000000 0.000000 0.000000 0.000000 0.000000 10.000000 
R_Toe3_02 0.000000 0.000000 0.000000 0.000000 0.000000 0.000000 10.000000 
R_Toe3_03 0.000000 0.000000 0.000000 0.000000 0.000000 0.000000 10.000000 
Rear_Leg02 0.000000 0.000000 0.000000 0.000000 0.000000 0.000000 10.000000 
Rear_Leg03 0.000000 0.000000 0.000000 0.000000 0.000000 0.000000 10.000000 
Rear_Leg04 0.000000 0.000000 0.000000 0.000000 0.000000 0.000000 10.000000 
Rear_Foot 0.000000 0.000000 0.000000 0.000000 0.000000 0.000000 10.000000 
planeAlignerCenter 0.000000 0.000000 0.000000 0.000000 0.000000 0.000000 10.000000 
Rear_Toe1_01 0.000000 0.000000 0.000000 0.000000 0.000000 0.000000 10.000000 
Rear_Toe2_01 0.000000 0.000000 0.000000 0.000000 0.000000 0.000000 10.000000 
Rear_Toe3_01 0.000000 0.000000 0.000000 0.000000 0.000000 0.000000 10.000000 
planeLockWeightCenter 0.000000 0.000000 0.000000 0.000000 0.000000 0.000000 10.000000 
Rear_Toe1_02 0.000000 0.000000 0.000000 0.000000 0.000000 0.000000 10.000000 
Rear_Toe1_03 0.000000 0.000000 0.000000 0.000000 0.000000 0.000000 10.000000 
Rear_Toe2_02 0.000000 0.000000 0.000000 0.000000 0.000000 0.000000 10.000000 
Rear_Toe2_03 0.000000 0.000000 0.000000 0.000000 0.000000 0.000000 10.000000 
Rear_Toe3_02 0.000000 0.000000 0.000000 0.000000 0.000000 0.000000 10.000000 
Rear_Toe3_03 0.000000 0.000000 0.000000 0.000000 0.000000 0.000000 10.000000 
Back_Bone 0.000000 0.000000 0.000000 0.000000 0.000000 0.000000 10.000000 
Head 0.000000 0.000000 0.000000 0.000000 0.000000 0.000000 10.000000 
Motor_Bone 0.000000 0.000000 0.000000 0.000000 0.000000 0.000000 10.000000 
Ping_Mechanism 0.000000 0.000000 0.000000 0.000000 0.000000 0.000000 10.000000 
BN_LookIK 0.000000 0.000000 0.000000 0.000000 0.000000 0.000000 10.000000 
bottomMouth 0.000000 0.000000 0.000000 0.000000 0.000000 0.000000 10.000000 
L_Mouth01 0.000000 0.000000 0.000000 0.000000 0.000000 0.000000 10.000000 
L_mouthFront 0.000000 0.000000 0.000000 0.000000 0.000000 0.000000 10.000000 
mouthGun 0.000000 0.000000 0.000000 0.000000 0.000000 0.000000 10.000000 
R_Mouth01 0.000000 0.000000 0.000000 0.000000 0.000000 0.000000 10.000000 
R_mouthFront 0.000000 0.000000 0.000000 0.000000 0.000000 0.000000 10.000000 
TopMouth 0.000000 0.000000 0.000000 0.000000 0.000000 0.000000 10.000000 
weapon_bone 0.000000 0.000000 0.000000 0.000000 0.000000 0.000000 10.000000 
#Beginning of Data. Separated by tabs
#Fr	Tx	Ty	Tz	Rx	Ry	Rz	SF
[Pinger_Root]
115 0.000000 0.000000 0.000000 -0.000075 -0.000000 -0.000020 0.000000
116 0.000000 0.000000 0.000000 -0.000075 -0.000000 -0.000020 0.000000
117 0.000000 0.000000 0.000000 -0.000075 -0.000000 -0.000020 0.000000
[Pelvis]
115 78.764244 948.799866 3883.982178 96.405792 -85.961632 -101.123032 3998.967773
116 85.625504 943.675049 3930.964111 95.674751 -84.929321 -100.816978 4043.554688
117 92.183945 938.773315 3984.548584 95.118851 -83.896606 -100.686470 4094.681885
[L_Hip]
115 5.766392 125.831482 872.656799 168.310318 -60.522915 106.319870 881.701050
116 5.766392 125.831482 872.656799 166.121490 -58.151615 109.523727 881.701050
117 5.766392 125.831482 872.656799 164.514923 -55.967155 112.188583 881.701050
[R_Hip]
115 5.765438 125.836372 -872.654907 25.383980 65.340981 111.168892 881.699829
116 5.765438 125.836372 -872.654907 28.731625 62.974045 114.607300 881.699829
117 5.765438 125.836372 -872.654907 31.151752 60.741165 117.224121 881.699829
[Rear_Leg01]
115 -192.298416 -925.602966 -0.001907 172.767151 1.282108 -133.397812 945.367432
116 -192.298416 -925.602966 -0.001907 172.317612 1.478841 -134.381943 945.367432
117 -192.298416 -925.602966 -0.001907 171.881393 1.531577 -135.491913 945.367432
[Spine1]
115 290.604584 5.007505 0.000477 4.502392 -0.357760 27.178267 290.647736
116 290.604584 5.007505 0.000477 4.941850 -0.403428 28.276995 290.647736
117 290.604584 5.007505 0.000477 5.380202 -0.457490 29.374954 290.647736
[L_Leg01]
115 761.932007 -0.002384 -0.069261 42.749969 -26.465866 -31.842714 761.932068
116 761.932007 -0.002384 -0.069261 41.008957 -24.012892 -29.214684 761.932068
117 761.932007 -0.002384 -0.069261 39.513695 -21.452301 -27.137865 761.932068
[L_Leg02]
115 1441.140503 -0.000954 -0.000715 4.528039 0.245352 -137.264236 1441.140503
116 1441.140503 -0.000954 -0.000715 4.355907 0.157993 -137.249298 1441.140503
117 1441.140503 -0.000954 -0.000715 4.124319 0.071560 -136.606964 1441.140503
[L_Leg03]
115 1686.963989 -0.000715 -0.000954 -0.055564 0.028957 125.775078 1686.963989
116 1686.963989 -0.000715 -0.000954 -0.051357 0.027085 124.795593 1686.963989
117 1686.963989 -0.000715 -0.000954 -0.048016 0.024032 123.674896 1686.963989
[L_Foot]
115 3041.570068 -30.715107 11.297464 2.206978 16.911026 53.910984 3041.746094
116 3041.570068 -30.715107 11.297464 2.020940 16.282509 54.487251 3041.746094
117 3041.570068 -30.715107 11.297464 1.828931 15.655828 55.063797 3041.746094
[L_Toe1_01]
115 -188.216690 -224.732346 -21.137953 93.651550 -8.739596 -172.620636 293.899567
116 -188.216690 -224.732346 -21.137953 93.667450 -8.461370 -172.539917 293.899567
117 -188.216690 -224.732346 -21.137953 93.683739 -8.183167 -172.459167 293.899567
[L_Toe2_01]
115 200.746536 -219.926590 148.838394 -90.000793 -29.373766 -50.662704 332.896027
116 200.746536 -219.926590 148.838394 -90.005676 -28.892038 -50.972042 332.896027
117 200.746536 -219.926590 148.838394 -90.013443 -28.410362 -51.279961 332.896027
[L_Toe3_01]
115 188.832520 -219.859131 -191.078659 -98.517906 12.751719 -63.705231 347.140900
116 188.832520 -219.859131 -191.078659 -98.716339 12.945370 -64.361183 347.140900
117 188.832520 -219.859131 -191.078659 -98.917130 13.136764 -65.018227 347.140900
[planeAlignerLeft]
115 0.812531 -811.448792 -0.314951 0.000000 -90.000000 -90.001900 811.449280
116 0.812531 -811.448792 -0.314951 0.000000 -90.000000 -90.001900 811.449280
117 0.812531 -811.448792 -0.314951 0.000000 -90.000000 -90.001900 811.449280
[L_Toe1_02]
115 413.761139 0.000477 0.000000 0.000203 -25.410625 -0.000182 413.761139
116 413.761139 0.000477 0.000000 0.000203 -25.410625 -0.000182 413.761139
117 413.761139 0.000477 0.000000 0.000203 -25.410625 -0.000182 413.761139
[L_Toe1_03]
115 464.317322 0.000358 -0.000089 0.003314 48.511845 0.003314 464.317322
116 464.317322 0.000358 -0.000089 0.003380 49.363190 0.003380 464.317322
117 464.317322 0.000358 -0.000089 0.003449 50.214447 0.003449 464.317322
[L_Toe2_02]
115 342.235809 -0.000477 0.000238 0.001186 -73.610786 0.001186 342.235809
116 342.235809 -0.000477 0.000238 0.001186 -73.459137 0.001186 342.235809
117 342.235809 -0.000477 0.000238 0.001186 -73.307434 0.001186 342.235809
[L_Toe2_03]
115 420.210846 -0.000715 0.000000 -0.047393 88.556808 -0.043896 420.210846
116 420.210846 -0.000715 0.000000 -0.036864 88.124344 -0.033367 420.210846
117 420.210846 -0.000715 0.000000 -0.030279 87.691574 -0.026782 420.210846
[L_Toe3_02]
115 329.270111 0.000954 0.000000 -0.002321 -82.357590 0.005174 329.270111
116 329.270111 0.000954 0.000000 0.001176 -82.149200 0.001176 329.270111
117 329.270111 0.000954 0.000000 0.001177 -81.915413 0.001177 329.270111
[L_Toe3_03]
115 439.137451 -0.001907 0.000954 179.997589 69.885811 -179.997681 439.137451
116 439.137451 -0.001907 0.000954 179.999664 71.216919 -179.996201 439.137451
117 439.137451 -0.001907 0.000954 -179.997986 72.547256 -179.994446 439.137451
[planeLockWeightLeft]
115 -0.000954 0.000238 -0.000305 -0.011826 -0.004376 0.005620 0.001029
116 -0.000954 0.000238 -0.000305 -0.011826 -0.004376 0.005620 0.001029
117 -0.000954 0.000238 -0.000305 -0.011826 -0.004376 0.005620 0.001029
[R_Leg01]
115 761.455627 -0.001907 -0.000358 106.699883 -15.395071 52.500835 761.455688
116 761.455627 -0.001907 -0.000358 107.821762 -13.106578 50.568005 761.455688
117 761.455627 -0.001907 -0.000358 108.947845 -10.603308 48.934711 761.455688
[R_Leg02]
115 1441.140625 0.000000 -0.000238 -1.754882 -0.638741 -142.109055 1441.140625
116 1441.140625 0.000000 -0.000238 -1.771227 -0.606282 -140.515747 1441.140625
117 1441.140625 0.000000 -0.000238 -1.761926 -0.557999 -138.253998 1441.140625
[R_Leg03]
115 1686.963989 0.000954 0.001431 0.104381 -0.063258 139.268845 1686.963989
116 1686.963989 0.000954 0.001431 0.101634 -0.061095 138.470169 1686.963989
117 1686.963989 0.000954 0.001431 0.098856 -0.058971 137.671448 1686.963989
[R_Foot]
115 3041.560059 -30.531288 -11.204481 -6.003243 -25.270483 59.193916 3041.734131
116 3041.560059 -30.531288 -11.204481 -5.210207 -25.252834 59.357761 3041.734131
117 3041.560059 -30.531288 -11.204481 -4.481898 -25.236729 59.314693 3041.734131
[planeAlignerRight]
115 -0.635147 -812.270569 -0.364304 0.000000 -89.960434 -90.005180 812.270874
116 -0.635147 -812.270569 -0.364304 0.000000 -89.960434 -90.005180 812.270874
117 -0.635147 -812.270569 -0.364304 0.000000 -89.960434 -90.005180 812.270874
[R_Toe1_01]
115 -188.383347 -224.864899 21.052242 69.305222 9.409935 -170.863922 294.101532
116 -188.383347 -224.864899 21.052242 70.541985 7.864700 -171.068588 294.101532
117 -188.383347 -224.864899 21.052242 71.638260 6.420472 -171.296219 294.101532
[R_Toe2_01]
115 200.637817 -220.002121 -148.787384 -79.090866 36.554020 -48.812614 332.857574
116 200.637817 -220.002121 -148.787384 -81.152412 35.984695 -50.448559 332.857574
117 200.637817 -220.002121 -148.787384 -83.042793 35.498466 -51.991592 332.857574
[R_Toe3_01]
115 188.606735 -220.092957 191.126343 -65.417343 -1.658405 -74.254135 347.192566
116 188.606735 -220.092957 191.126343 -66.558281 -2.724047 -74.203766 347.192566
117 188.606735 -220.092957 191.126343 -67.701569 -3.788676 -74.132065 347.192566
[planeLockWeightRight]
115 -0.000477 0.000000 0.000000 -0.011823 -0.004379 -0.000027 0.000477
116 -0.000477 0.000000 0.000000 -0.011823 -0.004379 -0.000027 0.000477
117 -0.000477 0.000000 0.000000 -0.011823 -0.004379 -0.000027 0.000477
[R_Toe1_02]
115 413.762085 0.000477 -0.000119 0.000006 -25.434675 -0.000005 413.762085
116 413.762085 0.000477 -0.000119 0.000006 -25.434675 -0.000005 413.762085
117 413.762085 0.000477 -0.000119 0.000006 -25.434675 -0.000005 413.762085
[R_Toe1_03]
115 464.317810 0.000000 0.001088 0.006421 68.938210 0.006421 464.317810
116 464.317810 0.000000 0.001088 0.006481 69.132538 0.006481 464.317810
117 464.317810 0.000000 0.001088 0.006541 69.326851 0.006541 464.317810
[R_Toe2_02]
115 342.234741 -0.000954 0.000238 0.001199 -66.231934 0.001199 342.234741
116 342.234741 -0.000954 0.000238 0.001199 -66.456902 0.001199 342.234741
117 342.234741 -0.000954 0.000238 0.001199 -66.581276 0.001199 342.234741
[R_Toe2_03]
115 420.210846 0.000715 -0.000268 -0.005384 71.690277 -0.001842 420.210846
116 420.210846 0.000715 -0.000268 -0.005466 72.112206 -0.001927 420.210846
117 420.210846 0.000715 -0.000268 -0.002225 72.376190 0.000429 420.210846
[R_Toe3_02]
115 329.270355 -0.000477 -0.000954 0.001185 -73.853500 0.001185 329.270355
116 329.270355 -0.000477 -0.000954 0.001185 -74.009964 0.001185 329.270355
117 329.270355 -0.000477 -0.000954 0.001185 -74.079063 0.001185 329.270355
[R_Toe3_03]
115 439.137939 0.000238 0.001431 0.016493 81.839157 0.016493 439.137939
116 439.137939 0.000238 0.001431 0.010218 82.074074 0.011095 439.137939
117 439.137939 0.000238 0.001431 0.003588 82.308792 0.005340 439.137939
[Rear_Leg02]
115 1162.777710 -0.029802 0.005960 -0.699181 1.143829 -130.915375 1162.777710
116 1162.777710 -0.029802 0.005960 -0.307817 0.586801 -132.635773 1162.777710
117 1162.777710 -0.029802 0.005960 0.051473 0.040732 -133.847290 1162.777710
[Rear_Leg03]
115 607.192505 -0.013351 -0.073195 0.010306 -0.005472 72.289688 607.192505
116 607.192505 -0.013351 -0.073195 0.010322 -0.005442 71.956619 607.192505
117 607.192505 -0.013351 -0.073195 0.010337 -0.005412 71.623512 607.192505
[Rear_Leg04]
115 995.874512 -0.020504 -0.011921 -0.041507 -0.015690 75.946350 995.874573
116 995.874512 -0.020504 -0.011921 -0.041409 -0.015946 75.239059 995.874573
117 995.874512 -0.020504 -0.011921 -0.041273 -0.016297 74.268158 995.874573
[Rear_Foot]
115 3096.176270 -0.067472 -0.041425 160.514481 86.993843 -6.465792 3096.176270
116 3096.176270 -0.067472 -0.041425 171.395386 86.847069 4.919529 3096.176270
117 3096.176270 -0.067472 -0.041425 -179.044708 86.593658 14.983805 3096.176270
[planeAlignerCenter]
115 0.350077 0.966311 -838.790894 0.000009 0.000003 -179.999985 838.791565
116 0.350077 0.966311 -838.790894 0.000009 0.000003 -179.999985 838.791565
117 0.350077 0.966311 -838.790894 0.000009 0.000003 -179.999985 838.791565
[Rear_Toe1_01]
115 0.653352 83.966492 -371.173737 2.762158 37.225452 95.710754 380.553192
116 0.653352 83.966492 -371.173737 2.427156 37.939041 94.929871 380.553192
117 0.653352 83.966492 -371.173737 2.076430 38.648914 94.135986 380.553192
[Rear_Toe2_01]
115 178.200760 -294.826019 -362.060547 -8.147466 30.683001 -68.866325 499.765686
116 178.200760 -294.826019 -362.060547 -8.031263 31.432861 -68.439156 499.765686
117 178.200760 -294.826019 -362.060547 -7.909456 31.983742 -68.079239 499.765686
[Rear_Toe3_01]
115 -153.359680 -308.780914 -362.060852 3.023358 29.646061 -115.668434 499.952881
116 -153.359680 -308.780914 -362.060852 3.012081 30.277260 -115.204353 499.952881
117 -153.359680 -308.780914 -362.060852 3.006694 30.908335 -114.737518 499.952881
[planeLockWeightCenter]
115 -0.000062 0.000238 0.000000 -0.011814 -0.004373 -0.000015 0.000246
116 -0.000062 0.000238 0.000000 -0.011814 -0.004373 -0.000015 0.000246
117 -0.000062 0.000238 0.000000 -0.011814 -0.004373 -0.000015 0.000246
[Rear_Toe1_02]
115 379.707825 0.194073 0.000477 -0.000313 -32.640900 0.006974 379.707855
116 379.707825 0.194073 0.000477 -0.000305 -32.536049 0.006969 379.707855
117 379.707825 0.194073 0.000477 -0.000297 -32.431206 0.006965 379.707855
[Rear_Toe1_03]
115 500.129700 0.165701 0.000119 -0.003906 58.041180 -0.000269 500.129761
116 500.129700 0.165701 0.000119 -0.003132 57.261868 0.001121 500.129761
117 500.129700 0.165701 0.000119 -0.002407 56.482410 0.002463 500.129761
[Rear_Toe2_02]
115 340.494507 0.000238 -0.000954 0.001181 -77.108467 0.001181 340.494507
116 340.494507 0.000238 -0.000954 0.001182 -76.180641 0.001182 340.494507
117 340.494507 0.000238 -0.000954 0.001184 -75.213089 0.001184 340.494507
[Rear_Toe2_03]
115 433.103577 0.000000 0.000238 0.017056 82.103127 0.017056 433.103546
116 433.103577 0.000000 0.000238 0.013936 80.331139 0.013936 433.103546
117 433.103577 0.000000 0.000238 0.011781 78.559586 0.011781 433.103546
[Rear_Toe3_02]
115 340.494141 -0.000358 -0.000477 0.008135 -66.871590 -0.009308 340.494171
116 340.494141 -0.000358 -0.000477 0.008197 -67.037506 -0.009370 340.494171
117 340.494141 -0.000358 -0.000477 0.008260 -67.203453 -0.009433 340.494171
[Rear_Toe3_03]
115 433.103577 0.001431 -0.000238 -0.000918 65.487953 -0.004497 433.103546
116 433.103577 0.001431 -0.000238 -0.000936 65.643028 -0.004513 433.103546
117 433.103577 0.001431 -0.000238 -0.000954 65.798065 -0.004530 433.103546
[Back_Bone]
115 1312.175781 -701.934692 0.000954 0.889490 0.055139 -87.938454 1488.125488
116 1312.175781 -701.934692 0.000954 0.973401 0.061327 -88.158455 1488.125488
117 1312.175781 -701.934692 0.000954 1.057285 0.067836 -88.378441 1488.125488
[Head]
115 1406.159424 809.709290 0.001431 0.001984 0.001255 25.372133 1622.625488
116 1406.159424 809.709290 0.001431 0.001986 0.001251 25.603794 1622.625488
117 1406.159424 809.709290 0.001431 0.001989 0.001247 25.835464 1622.625488
[Motor_Bone]
115 1158.364380 -417.834747 0.000477 -0.000105 0.000046 -105.985291 1231.419434
116 1158.364380 -417.834747 0.000477 -0.000105 0.000046 -105.985291 1231.419434
117 1158.364380 -417.834747 0.000477 -0.000105 0.000046 -105.985291 1231.419434
[Ping_Mechanism]
115 1197.544922 -424.460358 -3.635805 0.000103 -0.000053 82.120995 1270.548584
116 1192.896362 -421.983063 -4.477885 0.000103 -0.000053 82.120995 1265.342407
117 1188.247803 -419.505768 -5.319964 0.000103 -0.000053 82.120995 1260.137329
[BN_LookIK]
115 193.241119 1380.371704 -0.002861 0.000000 89.965736 -31.038179 1393.832153
116 193.241119 1380.371704 -0.002861 0.000000 89.965736 -31.038179 1393.832153
117 193.241119 1380.371704 -0.002861 0.000000 89.965736 -31.038179 1393.832153
[bottomMouth]
115 -435.092926 615.759399 -0.000954 -0.000022 0.000016 73.527184 753.966492
116 -435.092926 615.759399 -0.000954 -0.000022 0.000016 73.527184 753.966492
117 -435.092926 615.759399 -0.000954 -0.000022 0.000016 73.527184 753.966492
[L_Mouth01]
115 554.440979 7.658243 838.222046 150.204178 23.759130 109.605339 1005.027161
116 554.440979 7.658243 838.222046 150.204178 23.759130 109.605339 1005.027161
117 554.440979 7.658243 838.222046 150.204178 23.759130 109.605339 1005.027161
[L_mouthFront]
115 551.629089 934.514771 339.150421 0.000081 2.804060 79.119301 1136.941284
116 551.629089 934.514771 339.150421 0.000081 2.804060 79.119301 1136.941284
117 551.629089 934.514771 339.150421 0.000081 2.804060 79.119301 1136.941284
[mouthGun]
115 55.332661 1627.420898 0.000000 0.000023 0.000009 -11.038128 1628.361328
116 55.332661 1627.420898 0.000000 0.000023 0.000009 -11.038128 1628.361328
117 55.332661 1627.420898 0.000000 0.000023 0.000009 -11.038128 1628.361328
[R_Mouth01]
115 554.442383 7.659197 -838.223938 29.795891 -23.759109 109.605331 1005.029541
116 554.442383 7.659197 -838.223938 29.795891 -23.759109 109.605331 1005.029541
117 554.442383 7.659197 -838.223938 29.795891 -23.759109 109.605331 1005.029541
[R_mouthFront]
115 551.629089 934.514282 -339.151367 0.000029 -2.803930 79.119133 1136.941162
116 551.629089 934.514282 -339.151367 0.000029 -2.803930 79.119133 1136.941162
117 551.629089 934.514282 -339.151367 0.000029 -2.803930 79.119133 1136.941162
[TopMouth]
115 461.269867 -56.106091 -0.008583 -0.000059 -0.000268 92.025169 464.669525
116 461.269867 -56.106091 -0.008583 -0.000059 -0.000268 92.025169 464.669525
117 461.269867 -56.106091 -0.008583 -0.000059 -0.000268 92.025169 464.669525
[weapon_bone]
115 -987.239868 1448.372803 0.001431 0.000000 89.965736 -31.038221 1752.833740
116 -987.239868 1448.372803 0.001431 0.000000 89.965736 -31.038221 1752.833740
117 -987.239868 1448.372803 0.001431 0.000000 89.965736 -31.038221 1752.833740
